<?xml version="1.0" encoding="UTF-8" standalone="no"?>
<!-- Created with Inkscape (http://www.inkscape.org/) -->

<svg
   xmlns:dc="http://purl.org/dc/elements/1.1/"
   xmlns:cc="http://creativecommons.org/ns#"
   xmlns:rdf="http://www.w3.org/1999/02/22-rdf-syntax-ns#"
   xmlns:svg="http://www.w3.org/2000/svg"
   xmlns="http://www.w3.org/2000/svg"
   xmlns:sodipodi="http://sodipodi.sourceforge.net/DTD/sodipodi-0.dtd"
   xmlns:inkscape="http://www.inkscape.org/namespaces/inkscape"
   version="1.1"
   id="svg2"
   width="6.2177072mm"
   height="10.572989mm"
   viewBox="0 0 23.499996 39.960902"
   sodipodi:docname="red-marker.svg"
   inkscape:version="0.92.4 (5da689c313, 2019-01-14)">
  <metadata
     id="metadata8">
    <rdf:RDF>
      <cc:Work
         rdf:about="">
        <dc:format>image/svg+xml</dc:format>
        <dc:type
           rdf:resource="http://purl.org/dc/dcmitype/StillImage" />
        <dc:title></dc:title>
      </cc:Work>
    </rdf:RDF>
  </metadata>
  <defs
     id="defs6" />
  <sodipodi:namedview
     pagecolor="#ffffff"
     bordercolor="#666666"
     borderopacity="1"
     objecttolerance="10"
     gridtolerance="10"
     guidetolerance="10"
     inkscape:pageopacity="0"
     inkscape:pageshadow="2"
     inkscape:window-width="1670"
     inkscape:window-height="1024"
     id="namedview4"
     showgrid="false"
     showguides="true"
     inkscape:guide-bbox="true"
     inkscape:snap-object-midpoints="true"
     inkscape:snap-smooth-nodes="true"
     inkscape:object-paths="true"
     inkscape:snap-center="true"
     inkscape:snap-global="true"
     inkscape:snap-intersection-paths="true"
     units="mm"
     inkscape:zoom="5.6568543"
     inkscape:cx="5.8046506"
     inkscape:cy="49.260401"
     inkscape:window-x="1280"
     inkscape:window-y="0"
     inkscape:window-maximized="0"
     inkscape:current-layer="svg2"
     fit-margin-top="0"
     fit-margin-left="0"
     fit-margin-right="0"
     fit-margin-bottom="0" />
  <path
     style="opacity:1;fill:#bf2f2f;fill-opacity:1;stroke:none;stroke-width:1.88976371;stroke-linecap:butt;stroke-linejoin:round;stroke-miterlimit:4;stroke-dasharray:none;stroke-dashoffset:0;stroke-opacity:1"
     d="M 11.75,0 A 11.75,11.75 0 0 0 0,11.75 11.75,11.75 0 0 0 1.1386718,16.7695 H 1.1269528 L 11.75,39.9609 22.373047,16.7695 h -0.01563 A 11.75,11.75 0 0 0 23.499995,11.75 11.75,11.75 0 0 0 11.749995,0 Z m 0,7.6426 A 4.1059322,4.1059322 0 0 1 15.855469,11.75 4.1059322,4.1059322 0 0 1 11.75,15.8555 4.1059322,4.1059322 0 0 1 7.6425781,11.75 4.1059322,4.1059322 0 0 1 11.75,7.6426 Z"
     id="path4520"
     inkscape:connector-curvature="0" />
</svg>
